Coordinates
nRows=237
nColumns=2
inDegrees=yes
endheader
time	ankle_angle_r	
3.45968	 -5.416870	
3.49294	 -5.386353	
3.52621	 -5.386353	
3.55948	 -5.411611	
3.59274	 -5.390900	
3.62601	 -5.365641	
3.65927	 -5.422419	
3.69254	 -5.340576	
3.72581	 -5.357804	
3.75907	 -5.371094	
3.79234	 -5.310059	
3.8256	 -5.340576	
3.85887	 -5.392482	
3.89214	 -5.303833	
3.9254	 -5.307445	
3.95867	 -5.334157	
3.99194	 -5.334060	
4.0252	 -5.325317	
4.05847	 -5.342416	
4.09173	 -5.325317	
4.125	 -5.296253	
4.15827	 -5.333577	
4.19153	 -5.317155	
4.2248	 -5.325317	
4.25806	 -5.302089	
4.29133	 -5.287414	
4.3246	 -5.272058	
4.35786	 -5.378773	
4.39113	 -5.302382	
4.4244	 -5.302573	
4.45766	 -5.355354	
4.49093	 -5.325317	
4.52419	 -5.339709	
4.55746	 -5.355835	
4.59073	 -5.294800	
4.62399	 -5.301705	
4.65726	 -5.340576	
4.69052	 -5.327151	
4.72379	 -5.331933	
4.75706	 -5.340576	
4.79032	 -5.303636	
4.82359	 -5.316384	
4.85685	 -5.377323	
4.89012	 -5.352840	
4.92339	 -5.355835	
4.95665	 -5.343134	
4.98992	 -5.346418	
5.02319	 -5.441642	
5.05645	 -5.401611	
5.08972	 -5.330870	
5.12298	 -5.386353	
5.15625	 -5.422229	
5.18952	 -5.422132	
5.22278	 -5.427201	
5.25605	 -5.427008	
5.28931	 -5.401611	
5.32258	 -5.421745	
5.35585	 -5.436908	
5.38911	 -5.406293	
5.42238	 -5.447388	
5.45565	 -5.432129	
5.48891	 -5.416870	
5.52218	 -5.432129	
5.55544	 -5.458448	
5.58871	 -5.394556	
5.62198	 -5.447388	
5.65524	 -5.436038	
5.68851	 -5.443576	
5.72177	 -5.458931	
5.75504	 -5.455410	
5.78831	 -5.420392	
5.82157	 -5.455796	
5.85484	 -5.462646	
5.8881	 -5.410407	
5.92137	 -5.447388	
5.95464	 -5.450426	
5.9879	 -5.389294	
6.02117	 -5.432129	
6.05444	 -5.447388	
6.0877	 -5.353183	
6.12097	 -5.411760	
6.15423	 -5.416870	
6.1875	 -5.414509	
6.22077	 -5.384088	
6.25403	 -5.371094	
6.2873	 -5.366951	
6.32056	 -5.353860	
6.35383	 -5.386353	
6.3871	 -5.337013	
6.42036	 -5.338892	
6.45363	 -5.371094	
6.4869	 -5.326808	
6.52016	 -5.414081	
6.55343	 -5.442196	
6.58669	 -5.385151	
6.61996	 -5.432129	
6.65323	 -5.430113	
6.68649	 -5.370183	
6.71976	 -5.430500	
6.75302	 -5.384917	
6.78629	 -5.372336	
6.81956	 -5.416346	
6.85282	 -5.386780	
6.88609	 -5.401611	
6.91935	 -5.432129	
6.95262	 -5.370818	
6.98589	 -5.386353	
7.01915	 -5.432185	
7.05242	 -5.386505	
7.08569	 -5.386601	
7.11895	 -5.432475	
7.15222	 -5.371536	
7.18548	 -5.371633	
7.21875	 -5.386988	
7.25202	 -5.371094	
7.28528	 -5.386353	
7.31855	 -5.401611	
7.35181	 -5.357880	
7.38508	 -5.388591	
7.41835	 -5.401611	
7.45161	 -5.368469	
7.48488	 -5.355835	
7.51815	 -5.340576	
7.55141	 -5.325317	
7.58468	 -5.308359	
7.61794	 -5.388149	
7.65121	 -5.310059	
7.68448	 -5.340576	
7.71774	 -5.307972	
7.75101	 -5.310059	
7.78427	 -5.327597	
7.81754	 -5.325317	
7.85081	 -5.327790	
7.88407	 -5.322748	
7.91734	 -5.343242	
7.9506	 -5.322555	
7.98387	 -5.322458	
8.01714	 -5.377484	
8.0504	 -5.337523	
8.08367	 -5.306909	
8.11694	 -5.371094	
8.1502	 -5.337233	
8.18347	 -5.325317	
8.21673	 -5.352299	
8.25	 -5.328950	
8.28327	 -5.306329	
8.31653	 -5.382573	
8.3498	 -5.321394	
8.38306	 -5.332537	
8.41633	 -5.344693	
8.4496	 -5.299013	
8.48286	 -5.305749	
8.51613	 -5.351429	
8.5494	 -5.268785	
8.58266	 -5.371094	
8.61593	 -5.396915	
8.64919	 -5.326196	
8.68246	 -5.325317	
8.71573	 -5.360822	
8.74899	 -5.360919	
8.78226	 -5.381173	
8.81552	 -5.436834	
8.84879	 -5.345950	
8.88206	 -5.441917	
8.91532	 -5.420995	
8.94859	 -5.401611	
8.98185	 -5.426369	
9.01512	 -5.416870	
9.04839	 -5.392306	
9.08165	 -5.428970	
9.11492	 -5.432129	
9.14819	 -5.401611	
9.18145	 -5.447388	
9.21472	 -5.438566	
9.24798	 -5.401611	
9.28125	 -5.438759	
9.31452	 -5.440660	
9.34778	 -5.416870	
9.38105	 -5.447388	
9.41431	 -5.425112	
9.44758	 -5.425015	
9.48085	 -5.439339	
9.51411	 -5.431484	
9.54738	 -5.424725	
9.58065	 -5.439887	
9.61391	 -5.424467	
9.64718	 -5.386353	
9.68044	 -5.432129	
9.71371	 -5.432129	
9.74698	 -5.386353	
9.78024	 -5.371996	
9.81351	 -5.416870	
9.84677	 -5.340576	
9.88004	 -5.379465	
9.91331	 -5.394820	
9.94657	 -5.347271	
9.97984	 -5.388415	
10.0131	 -5.355835	
10.0464	 -5.349430	
10.0796	 -5.340576	
10.1129	 -5.389189	
10.1462	 -5.331432	
10.1794	 -5.355835	
10.2127	 -5.365172	
10.246	 -5.338361	
10.2792	 -5.384428	
10.3125	 -5.384717	
10.3458	 -5.351645	
10.379	 -5.380915	
10.4123	 -5.401611	
10.4456	 -5.376338	
10.4788	 -5.411722	
10.5121	 -5.391509	
10.5454	 -5.376048	
10.5786	 -5.381495	
10.6119	 -5.371094	
10.6452	 -5.401611	
10.6784	 -5.427561	
10.7117	 -5.390823	
10.745	 -5.371094	
10.7782	 -5.427851	
10.8115	 -5.386353	
10.8448	 -5.390437	
10.878	 -5.416870	
10.9113	 -5.367203	
10.9446	 -5.386353	
10.9778	 -5.401611	
11.0111	 -5.371094	
11.0444	 -5.386353	
11.0776	 -5.398204	
11.1109	 -5.337265	
11.1442	 -5.316487	
11.1774	 -5.380118	
11.2107	 -5.358856	
11.244	 -5.349987	
11.2772	 -5.355835	
11.3105	 -5.328048	
